<svg width="20" height="20" viewBox="0 0 20 20" fill="none" xmlns="http://www.w3.org/2000/svg">
<g clip-path="url(#clip0_13315_308585)">
<path d="M15 13.3993C14.3667 13.3993 13.8 13.6494 13.3667 14.041L7.425 10.5827C7.46667 10.391 7.5 10.1993 7.5 9.99935C7.5 9.79935 7.46667 9.60768 7.425 9.41602L13.3 5.99102C13.75 6.40768 14.3417 6.66602 15 6.66602C16.3833 6.66602 17.5 5.54935 17.5 4.16602C17.5 2.78268 16.3833 1.66602 15 1.66602C13.6167 1.66602 12.5 2.78268 12.5 4.16602C12.5 4.36602 12.5333 4.55768 12.575 4.74935L6.7 8.17435C6.25 7.75768 5.65833 7.49935 5 7.49935C3.61667 7.49935 2.5 8.61602 2.5 9.99935C2.5 11.3827 3.61667 12.4993 5 12.4993C5.65833 12.4993 6.25 12.241 6.7 11.8243L12.6333 15.291C12.5917 15.466 12.5667 15.6493 12.5667 15.8327C12.5667 17.1743 13.6583 18.266 15 18.266C16.3417 18.266 17.4333 17.1743 17.4333 15.8327C17.4333 14.491 16.3417 13.3993 15 13.3993Z" fill="#1D333B"/>
</g>
<defs>
<clipPath id="clip0_13315_308585">
<rect width="20" height="20" fill="white"/>
</clipPath>
</defs>
</svg>
